# xmcd
#
# Track frame offsets:
#	150
#	12915
#	33836
#	59716
#	84664
#	109175
#	138886
#	160827
#	193807
#	214376
#
# Disc length: 3272 seconds
#
# Revision: 2
# Processed by: cddbd v1.5.1PL2 Copyright (c) Steve Scherf et al.
# Submitted via: EasyCDDAExtractor 9.0.0.1
#
DISCID=8b0cc60a
DTITLE=Blue Oyster Cult - Sports Rock Bristol CT 11-07-98 Disc 1
DYEAR=1998
DGENRE=Hard Rock
TTITLE0=Burnin' For You
TTITLE1=Cities On Flame
TTITLE2=ETI
TTITLE3=Harvest Moon
TTITLE4=Buck's Boogie
TTITLE5=OD'd On Life Itself
TTITLE6=The Vigil
TTITLE7=Live For Me
TTITLE8=Flaming Telepaths
TTITLE9=See You In Black
EXTD=
EXTT0=
EXTT1=
EXTT2=
EXTT3=
EXTT4=
EXTT5=
EXTT6=
EXTT7=
EXTT8=
EXTT9=
PLAYORDER=
